NotoSansHebrew-CondensedBold.ufo
<glyph name="hyphen" format="2">
  <advance width="325"/>
  <unicode hex="002D"/>
  <outline>
    <contour>
      <point x="29" y="192" type="line"/>
      <point x="296" y="192" type="line"/>
      <point x="296" y="344" type="line"/>
      <point x="29" y="344" type="line"/>
    </contour>
  </outline>
</glyph>
<glyph name="etnahtaleft-hb" format="2">
  <unicode hex="0591"/>
  <note>
uni0591
</note>
  <anchor x="146" y="0" name="_bottomleft"/>
  <outline>
    <contour>
      <point x="62" y="-217" type="line"/>
      <point x="107" y="-217" type="line"/>
      <point x="107" y="-196" type="line" smooth="yes"/>
      <point x="107" y="-165"/>
      <point x="117" y="-152"/>
      <point x="147" y="-152" type="curve" smooth="yes"/>
      <point x="175" y="-152"/>
      <point x="186" y="-165"/>
      <point x="186" y="-196" type="curve" smooth="yes"/>
      <point x="186" y="-217" type="line"/>
      <point x="231" y="-217" type="line"/>
      <point x="231" y="-195" type="line" smooth="yes"/>
      <point x="231" y="-144"/>
      <point x="212" y="-118"/>
      <point x="169" y="-111" type="curve"/>
      <point x="169" y="-70" type="line"/>
      <point x="123" y="-70" type="line"/>
      <point x="123" y="-111" type="line"/>
      <point x="82" y="-118"/>
      <point x="62" y="-144"/>
      <point x="62" y="-195" type="curve" smooth="yes"/>
    </contour>
  </outline>
</glyph>
<glyph name="shalshelet-hb" format="2">
  <unicode hex="0593"/>
  <note>
uni0593
</note>
  <anchor x="129" y="553" name="_top"/>
  <outline>
    <contour>
      <point x="60" y="659" type="line"/>
      <point x="116" y="659" type="line"/>
      <point x="198" y="699" type="line"/>
      <point x="125" y="740" type="line"/>
      <point x="198" y="781" type="line"/>
      <point x="125" y="821" type="line"/>
      <point x="198" y="862" type="line"/>
      <point x="133" y="862" type="line"/>
      <point x="60" y="821" type="line"/>
      <point x="133" y="781" type="line"/>
      <point x="60" y="740" type="line"/>
      <point x="133" y="699" type="line"/>
    </contour>
  </outline>
</glyph>
<glyph name="zaqefgadol-hb" format="2">
  <unicode hex="0595"/>
  <note>
uni0595
</note>
  <anchor x="145" y="553" name="_top"/>
  <outline>
    <contour>
      <point x="50" y="673" type="line"/>
      <point x="107" y="673" type="line"/>
      <point x="107" y="862" type="line"/>
      <point x="50" y="862" type="line"/>
    </contour>
    <contour>
      <point x="197" y="778" type="curve" smooth="yes"/>
      <point x="220" y="778"/>
      <point x="239" y="797"/>
      <point x="239" y="820" type="curve" smooth="yes"/>
      <point x="239" y="843"/>
      <point x="220" y="862"/>
      <point x="197" y="862" type="curve" smooth="yes"/>
      <point x="174" y="862"/>
      <point x="155" y="843"/>
      <point x="155" y="820" type="curve" smooth="yes"/>
      <point x="155" y="797"/>
      <point x="174" y="778"/>
    </contour>
    <contour>
      <point x="197" y="673" type="curve" smooth="yes"/>
      <point x="220" y="673"/>
      <point x="239" y="692"/>
      <point x="239" y="715" type="curve" smooth="yes"/>
      <point x="239" y="738"/>
      <point x="220" y="757"/>
      <point x="197" y="757" type="curve" smooth="yes"/>
      <point x="174" y="757"/>
      <point x="155" y="738"/>
      <point x="155" y="715" type="curve" smooth="yes"/>
      <point x="155" y="692"/>
      <point x="174" y="673"/>
    </contour>
  </outline>
</glyph>
<glyph name="reviamugrash-hb" format="2">
  <unicode hex="0597"/>
  <note>
uni0597
</note>
  <anchor x="188" y="553" name="_topleft"/>
  <outline>
    <contour>
      <point x="127" y="650" type="line"/>
      <point x="195" y="725" type="line"/>
      <point x="127" y="799" type="line"/>
      <point x="59" y="725" type="line"/>
    </contour>
  </outline>
</glyph>
<glyph name="zarqa-hb" format="2">
  <unicode hex="0598"/>
  <note>
uni0598
</note>
  <anchor x="202" y="553" name="_top"/>
  <outline>
    <contour>
      <point x="117" y="650" type="curve"/>
      <point x="130" y="682" type="line"/>
      <point x="113" y="689"/>
      <point x="104" y="701"/>
      <point x="104" y="720" type="curve" smooth="yes"/>
      <point x="104" y="741"/>
      <point x="116" y="754"/>
      <point x="133" y="754" type="curve" smooth="yes"/>
      <point x="153" y="754"/>
      <point x="163" y="745"/>
      <point x="190" y="707" type="curve" smooth="yes"/>
      <point x="220" y="664"/>
      <point x="241" y="651"/>
      <point x="271" y="651" type="curve" smooth="yes"/>
      <point x="308" y="651"/>
      <point x="335" y="677"/>
      <point x="335" y="717" type="curve" smooth="yes"/>
      <point x="335" y="751"/>
      <point x="319" y="775"/>
      <point x="287" y="787" type="curve"/>
      <point x="274" y="754" type="line"/>
      <point x="291" y="747"/>
      <point x="300" y="736"/>
      <point x="300" y="717" type="curve" smooth="yes"/>
      <point x="300" y="695"/>
      <point x="288" y="682"/>
      <point x="271" y="682" type="curve" smooth="yes"/>
      <point x="252" y="682"/>
      <point x="239" y="696"/>
      <point x="214" y="729" type="curve" smooth="yes"/>
      <point x="183" y="773"/>
      <point x="163" y="786"/>
      <point x="134" y="786" type="curve" smooth="yes"/>
      <point x="96" y="786"/>
      <point x="69" y="759"/>
      <point x="69" y="720" type="curve" smooth="yes"/>
      <point x="69" y="685"/>
      <point x="85" y="661"/>
    </contour>
  </outline>
</glyph>
<glyph name="pashta-hb" format="2">
  <unicode hex="0599"/>
  <note>
uni0599
</note>
  <anchor x="204" y="553" name="_topleft"/>
  <outline>
    <contour>
      <point x="156" y="650" type="curve"/>
      <point x="204" y="650" type="line"/>
      <point x="204" y="737"/>
      <point x="150" y="786"/>
      <point x="60" y="786" type="curve"/>
      <point x="60" y="738" type="line"/>
      <point x="121" y="738"/>
      <point x="156" y="705"/>
    </contour>
  </outline>
</glyph>
<glyph name="yetiv-hb" format="2">
  <unicode hex="059A"/>
  <note>
uni059A
</note>
  <anchor x="132" y="0" name="_bottomleft"/>
  <outline>
    <contour>
      <point x="140" y="-230" type="line"/>
      <point x="203" y="-230" type="line"/>
      <point x="123" y="-149" type="line"/>
      <point x="203" y="-69" type="line"/>
      <point x="140" y="-69" type="line"/>
      <point x="60" y="-149" type="line"/>
    </contour>
  </outline>
</glyph>
<glyph name="tevirleft-hb" format="2">
  <unicode hex="059B"/>
  <note>
uni059B
</note>
  <anchor x="199" y="0" name="_bottomleft"/>
  <outline>
    <contour>
      <point x="77" y="-201" type="line"/>
      <point x="171" y="-201"/>
      <point x="223" y="-150"/>
      <point x="223" y="-66" type="curve"/>
      <point x="174" y="-66" type="line"/>
      <point x="174" y="-121"/>
      <point x="138" y="-154"/>
      <point x="77" y="-154" type="curve"/>
    </contour>
    <contour>
      <point x="96" y="-107" type="curve" smooth="yes"/>
      <point x="116" y="-107"/>
      <point x="131" y="-92"/>
      <point x="131" y="-72" type="curve" smooth="yes"/>
      <point x="131" y="-52"/>
      <point x="116" y="-36"/>
      <point x="96" y="-36" type="curve" smooth="yes"/>
      <point x="76" y="-36"/>
      <point x="61" y="-53"/>
      <point x="61" y="-72" type="curve" smooth="yes"/>
      <point x="61" y="-92"/>
      <point x="76" y="-107"/>
    </contour>
  </outline>
</glyph>
<glyph name="gereshaccent-hb" format="2">
  <unicode hex="059C"/>
  <note>
uni059C
</note>
  <anchor x="85" y="553" name="_topleft"/>
  <outline>
    <contour>
      <point x="60" y="636" type="curve"/>
      <point x="108" y="636" type="line"/>
      <point x="108" y="692"/>
      <point x="144" y="724"/>
      <point x="204" y="724" type="curve"/>
      <point x="204" y="772" type="line"/>
      <point x="114" y="772"/>
      <point x="60" y="722"/>
    </contour>
  </outline>
</glyph>
<glyph name="gereshmuqdam-hb" format="2">
  <unicode hex="059D"/>
  <note>
uni059D
</note>
  <anchor x="157" y="553" name="_top"/>
  <outline>
    <contour>
      <point x="60" y="636" type="curve"/>
      <point x="108" y="636" type="line"/>
      <point x="108" y="692"/>
      <point x="144" y="724"/>
      <point x="204" y="724" type="curve"/>
      <point x="204" y="772" type="line"/>
      <point x="114" y="772"/>
      <point x="60" y="722"/>
    </contour>
  </outline>
</glyph>
<glyph name="gershayimaccent-hb" format="2">
  <unicode hex="059E"/>
  <note>
uni059E
</note>
  <anchor x="172" y="553" name="_top"/>
  <outline>
    <contour>
      <point x="216" y="636" type="curve"/>
      <point x="265" y="636" type="line"/>
      <point x="265" y="692"/>
      <point x="302" y="724"/>
      <point x="362" y="724" type="curve"/>
      <point x="362" y="772" type="line"/>
      <point x="271" y="772"/>
      <point x="216" y="722"/>
    </contour>
    <contour>
      <point x="70" y="636" type="curve"/>
      <point x="120" y="636" type="line"/>
      <point x="120" y="692"/>
      <point x="156" y="724"/>
      <point x="216" y="724" type="curve"/>
      <point x="216" y="772" type="line"/>
      <point x="123" y="772"/>
      <point x="70" y="721"/>
    </contour>
  </outline>
</glyph>
<glyph name="qarneypara-hb" format="2">
  <unicode hex="059F"/>
  <note>
uni059F
</note>
  <anchor x="300" y="553" name="_top"/>
  <outline>
    <contour>
      <point x="347" y="629" type="line"/>
      <point x="384" y="665" type="line"/>
      <point x="397" y="659"/>
      <point x="412" y="655"/>
      <point x="428" y="655" type="curve" smooth="yes"/>
      <point x="480" y="655"/>
      <point x="519" y="696"/>
      <point x="519" y="746" type="curve" smooth="yes"/>
      <point x="519" y="797"/>
      <point x="478" y="835"/>
      <point x="428" y="835" type="curve" smooth="yes"/>
      <point x="378" y="835"/>
      <point x="338" y="796"/>
      <point x="338" y="746" type="curve" smooth="yes"/>
      <point x="338" y="729"/>
      <point x="342" y="713"/>
      <point x="350" y="701" type="curve"/>
      <point x="312" y="663" type="line"/>
    </contour>
    <contour>
      <point x="253" y="629" type="line"/>
      <point x="288" y="663" type="line"/>
      <point x="250" y="701" type="line"/>
      <point x="258" y="713"/>
      <point x="262" y="729"/>
      <point x="262" y="746" type="curve" smooth="yes"/>
      <point x="262" y="796"/>
      <point x="222" y="835"/>
      <point x="172" y="835" type="curve" smooth="yes"/>
      <point x="122" y="835"/>
      <point x="81" y="796"/>
      <point x="81" y="746" type="curve" smooth="yes"/>
      <point x="81" y="696"/>
      <point x="120" y="655"/>
      <point x="172" y="655" type="curve" smooth="yes"/>
      <point x="188" y="655"/>
      <point x="203" y="659"/>
      <point x="216" y="665" type="curve"/>
    </contour>
    <contour>
      <point x="173" y="700" type="curve" smooth="yes"/>
      <point x="147" y="700"/>
      <point x="126" y="721"/>
      <point x="126" y="746" type="curve" smooth="yes"/>
      <point x="126" y="769"/>
      <point x="148" y="790"/>
      <point x="173" y="790" type="curve" smooth="yes"/>
      <point x="196" y="790"/>
      <point x="217" y="770"/>
      <point x="217" y="746" type="curve" smooth="yes"/>
      <point x="217" y="720"/>
      <point x="196" y="700"/>
    </contour>
    <contour>
      <point x="427" y="700" type="curve" smooth="yes"/>
      <point x="404" y="700"/>
      <point x="383" y="720"/>
      <point x="383" y="746" type="curve" smooth="yes"/>
      <point x="383" y="770"/>
      <point x="404" y="790"/>
      <point x="427" y="790" type="curve" smooth="yes"/>
      <point x="452" y="790"/>
      <point x="474" y="769"/>
      <point x="474" y="746" type="curve" smooth="yes"/>
      <point x="474" y="721"/>
      <point x="453" y="700"/>
    </contour>
  </outline>
</glyph>
<glyph name="telishagedola-hb" format="2">
  <unicode hex="05A0"/>
  <note>
uni05A0
</note>
  <anchor x="168" y="553" name="_top"/>
  <outline>
    <contour>
      <point x="100" y="629" type="line"/>
      <point x="136" y="665" type="line"/>
      <point x="150" y="659"/>
      <point x="164" y="655"/>
      <point x="180" y="655" type="curve" smooth="yes"/>
      <point x="232" y="655"/>
      <point x="272" y="696"/>
      <point x="272" y="746" type="curve" smooth="yes"/>
      <point x="272" y="797"/>
      <point x="230" y="835"/>
      <point x="180" y="835" type="curve" smooth="yes"/>
      <point x="130" y="835"/>
      <point x="90" y="796"/>
      <point x="90" y="746" type="curve" smooth="yes"/>
      <point x="90" y="729"/>
      <point x="94" y="713"/>
      <point x="102" y="701" type="curve"/>
      <point x="64" y="663" type="line"/>
    </contour>
    <contour>
      <point x="179" y="700" type="curve" smooth="yes"/>
      <point x="156" y="700"/>
      <point x="136" y="720"/>
      <point x="136" y="746" type="curve" smooth="yes"/>
      <point x="136" y="770"/>
      <point x="157" y="790"/>
      <point x="179" y="790" type="curve" smooth="yes"/>
      <point x="204" y="790"/>
      <point x="226" y="769"/>
      <point x="226" y="746" type="curve" smooth="yes"/>
      <point x="226" y="721"/>
      <point x="205" y="700"/>
    </contour>
  </outline>
</glyph>
<glyph name="pazer-hb" format="2">
  <unicode hex="05A1"/>
  <note>
uni05A1
</note>
  <anchor x="134" y="553" name="_top"/>
  <outline>
    <contour>
      <point x="60" y="635" type="line"/>
      <point x="105" y="635" type="line"/>
      <point x="105" y="680" type="line"/>
      <point x="112" y="676"/>
      <point x="121" y="675"/>
      <point x="130" y="675" type="curve" smooth="yes"/>
      <point x="182" y="675"/>
      <point x="208" y="708"/>
      <point x="208" y="760" type="curve" smooth="yes"/>
      <point x="208" y="782" type="line"/>
      <point x="162" y="782" type="line"/>
      <point x="162" y="760" type="line" smooth="yes"/>
      <point x="162" y="727"/>
      <point x="152" y="716"/>
      <point x="124" y="716" type="curve" smooth="yes"/>
      <point x="114" y="716"/>
      <point x="109" y="717"/>
      <point x="105" y="722" type="curve"/>
      <point x="105" y="782" type="line"/>
      <point x="60" y="782" type="line"/>
    </contour>
  </outline>
</glyph>
<glyph name="munahleft-hb" format="2">
  <unicode hex="05A3"/>
  <note>
uni05A3
</note>
  <anchor x="204" y="0" name="_bottomleft"/>
  <outline>
    <contour>
      <point x="60" y="-209" type="line"/>
      <point x="204" y="-209" type="line"/>
      <point x="204" y="-70" type="line"/>
      <point x="156" y="-70" type="line"/>
      <point x="156" y="-161" type="line"/>
      <point x="60" y="-161" type="line"/>
    </contour>
  </outline>
</glyph>
<glyph name="mahapakhleft-hb" format="2">
  <unicode hex="05A4"/>
  <note>
uni05A4
</note>
  <anchor x="132" y="0" name="_bottomleft"/>
  <outline>
    <contour>
      <point x="140" y="-231" type="line"/>
      <point x="204" y="-231" type="line"/>
      <point x="124" y="-150" type="line"/>
      <point x="204" y="-70" type="line"/>
      <point x="140" y="-70" type="line"/>
      <point x="60" y="-150" type="line"/>
    </contour>
  </outline>
</glyph>
<glyph name="merkhaleft-hb" format="2">
  <unicode hex="05A5"/>
  <note>
uni05A5
</note>
  <anchor x="204" y="0" name="_bottomleft"/>
  <outline>
    <contour>
      <point x="60" y="-205" type="line"/>
      <point x="152" y="-205"/>
      <point x="204" y="-155"/>
      <point x="204" y="-70" type="curve"/>
      <point x="156" y="-70" type="line"/>
      <point x="156" y="-124"/>
      <point x="120" y="-158"/>
      <point x="60" y="-158" type="curve"/>
    </contour>
  </outline>
</glyph>
<glyph name="merkhakefulaleft-hb" format="2">
  <unicode hex="05A6"/>
  <note>
uni05A6
</note>
  <anchor x="260" y="0" name="_bottomleft"/>
  <outline>
    <contour>
      <point x="216" y="-205" type="line"/>
      <point x="310" y="-205"/>
      <point x="362" y="-154"/>
      <point x="362" y="-70" type="curve"/>
      <point x="312" y="-70" type="line"/>
      <point x="312" y="-124"/>
      <point x="277" y="-158"/>
      <point x="216" y="-158" type="curve"/>
    </contour>
    <contour>
      <point x="70" y="-205" type="line"/>
      <point x="163" y="-205"/>
      <point x="216" y="-155"/>
      <point x="216" y="-70" type="curve"/>
      <point x="167" y="-70" type="line"/>
      <point x="167" y="-124"/>
      <point x="131" y="-158"/>
      <point x="70" y="-158" type="curve"/>
    </contour>
  </outline>
</glyph>
<glyph name="dargaleft-hb" format="2">
  <unicode hex="05A7"/>
  <note>
uni05A7
</note>
  <anchor x="187" y="0" name="_bottomleft"/>
  <outline>
    <contour>
      <point x="73" y="-229" type="line"/>
      <point x="199" y="-206" type="line"/>
      <point x="123" y="-107" type="line"/>
      <point x="187" y="-94" type="line"/>
      <point x="187" y="-61" type="line"/>
      <point x="60" y="-84" type="line"/>
      <point x="136" y="-184" type="line"/>
      <point x="73" y="-193" type="line"/>
    </contour>
  </outline>
</glyph>
<glyph name="qadma-hb" format="2">
  <unicode hex="05A8"/>
  <note>
uni05A8
</note>
  <anchor x="180" y="553" name="_topleft"/>
  <outline>
    <contour>
      <point x="156" y="636" type="curve"/>
      <point x="204" y="636" type="line"/>
      <point x="204" y="723"/>
      <point x="150" y="772"/>
      <point x="60" y="772" type="curve"/>
      <point x="60" y="724" type="line"/>
      <point x="121" y="724"/>
      <point x="156" y="691"/>
    </contour>
  </outline>
</glyph>
<glyph name="telishaqetana-hb" format="2">
  <unicode hex="05A9"/>
  <note>
uni05A9
</note>
  <anchor x="157" y="553" name="_topleft"/>
  <outline>
    <contour>
      <point x="236" y="629" type="line"/>
      <point x="272" y="663" type="line"/>
      <point x="234" y="701" type="line"/>
      <point x="242" y="713"/>
      <point x="246" y="729"/>
      <point x="246" y="746" type="curve" smooth="yes"/>
      <point x="246" y="796"/>
      <point x="206" y="835"/>
      <point x="156" y="835" type="curve" smooth="yes"/>
      <point x="106" y="835"/>
      <point x="64" y="796"/>
      <point x="64" y="746" type="curve" smooth="yes"/>
      <point x="64" y="696"/>
      <point x="104" y="655"/>
      <point x="156" y="655" type="curve" smooth="yes"/>
      <point x="172" y="655"/>
      <point x="186" y="659"/>
      <point x="200" y="665" type="curve"/>
    </contour>
    <contour>
      <point x="157" y="700" type="curve" smooth="yes"/>
      <point x="131" y="700"/>
      <point x="110" y="721"/>
      <point x="110" y="746" type="curve" smooth="yes"/>
      <point x="110" y="769"/>
      <point x="132" y="790"/>
      <point x="157" y="790" type="curve" smooth="yes"/>
      <point x="179" y="790"/>
      <point x="200" y="770"/>
      <point x="200" y="746" type="curve" smooth="yes"/>
      <point x="200" y="720"/>
      <point x="180" y="700"/>
    </contour>
  </outline>
</glyph>
<glyph name="yerahbenyomoleft-hb" format="2">
  <unicode hex="05AA"/>
  <note>
uni05AA
</note>
  <anchor x="147" y="0" name="_bottomleft"/>
  <outline>
    <contour>
      <point x="123" y="-217" type="line"/>
      <point x="169" y="-217" type="line"/>
      <point x="169" y="-177" type="line"/>
      <point x="210" y="-170"/>
      <point x="231" y="-145"/>
      <point x="231" y="-92" type="curve" smooth="yes"/>
      <point x="231" y="-70" type="line"/>
      <point x="186" y="-70" type="line"/>
      <point x="186" y="-92" type="line" smooth="yes"/>
      <point x="186" y="-123"/>
      <point x="175" y="-137"/>
      <point x="147" y="-137" type="curve" smooth="yes"/>
      <point x="117" y="-137"/>
      <point x="107" y="-123"/>
      <point x="107" y="-92" type="curve" smooth="yes"/>
      <point x="107" y="-70" type="line"/>
      <point x="62" y="-70" type="line"/>
      <point x="62" y="-92" type="line" smooth="yes"/>
      <point x="62" y="-145"/>
      <point x="85" y="-171"/>
      <point x="123" y="-177" type="curve"/>
    </contour>
  </outline>
</glyph>
<glyph name="ole-hb" format="2">
  <unicode hex="05AB"/>
  <note>
uni05AB
</note>
  <anchor x="132" y="553" name="_top"/>
  <outline>
    <contour>
      <point x="140" y="633" type="line"/>
      <point x="204" y="633" type="line"/>
      <point x="124" y="714" type="line"/>
      <point x="204" y="794" type="line"/>
      <point x="140" y="794" type="line"/>
      <point x="60" y="714" type="line"/>
    </contour>
  </outline>
</glyph>
<glyph name="iluy-hb" format="2">
  <unicode hex="05AC"/>
  <note>
uni05AC
</note>
  <anchor x="132" y="553" name="_top"/>
  <outline>
    <contour>
      <point x="60" y="636" type="line"/>
      <point x="204" y="636" type="line"/>
      <point x="204" y="775" type="line"/>
      <point x="156" y="775" type="line"/>
      <point x="156" y="683" type="line"/>
      <point x="60" y="683" type="line"/>
    </contour>
  </outline>
</glyph>
<glyph name="dehi-hb" format="2">
  <unicode hex="05AD"/>
  <note>
uni05AD
</note>
  <anchor x="85" y="0" name="_bottomleft"/>
  <outline>
    <contour>
      <point x="204" y="-205" type="curve"/>
      <point x="204" y="-158" type="line"/>
      <point x="144" y="-158"/>
      <point x="108" y="-125"/>
      <point x="108" y="-70" type="curve"/>
      <point x="60" y="-70" type="line"/>
      <point x="60" y="-155"/>
      <point x="113" y="-205"/>
    </contour>
  </outline>
</glyph>
<glyph name="zinor-hb" format="2">
  <unicode hex="05AE"/>
  <note>
uni05AE
</note>
  <anchor x="202" y="553" name="_top"/>
  <outline>
    <contour>
      <point x="117" y="636" type="curve"/>
      <point x="130" y="668" type="line"/>
      <point x="113" y="675"/>
      <point x="104" y="687"/>
      <point x="104" y="706" type="curve" smooth="yes"/>
      <point x="104" y="727"/>
      <point x="116" y="740"/>
      <point x="133" y="740" type="curve" smooth="yes"/>
      <point x="153" y="740"/>
      <point x="163" y="731"/>
      <point x="190" y="693" type="curve" smooth="yes"/>
      <point x="220" y="650"/>
      <point x="241" y="637"/>
      <point x="271" y="637" type="curve" smooth="yes"/>
      <point x="308" y="637"/>
      <point x="335" y="663"/>
      <point x="335" y="703" type="curve" smooth="yes"/>
      <point x="335" y="737"/>
      <point x="319" y="761"/>
      <point x="287" y="773" type="curve"/>
      <point x="274" y="740" type="line"/>
      <point x="291" y="733"/>
      <point x="300" y="722"/>
      <point x="300" y="703" type="curve" smooth="yes"/>
      <point x="300" y="680"/>
      <point x="288" y="668"/>
      <point x="271" y="668" type="curve" smooth="yes"/>
      <point x="252" y="668"/>
      <point x="239" y="682"/>
      <point x="214" y="715" type="curve" smooth="yes"/>
      <point x="183" y="759"/>
      <point x="163" y="772"/>
      <point x="134" y="772" type="curve" smooth="yes"/>
      <point x="96" y="772"/>
      <point x="69" y="745"/>
      <point x="69" y="706" type="curve" smooth="yes"/>
      <point x="69" y="670"/>
      <point x="85" y="647"/>
    </contour>
  </outline>
</glyph>
<glyph name="masoracircle-hb" format="2">
  <unicode hex="05AF"/>
  <note>
uni05AF
</note>
  <anchor x="151" y="553" name="_top"/>
  <outline>
    <contour>
      <point x="151" y="632" type="curve" smooth="yes"/>
      <point x="201" y="632"/>
      <point x="240" y="671"/>
      <point x="240" y="721" type="curve" smooth="yes"/>
      <point x="240" y="770"/>
      <point x="200" y="809"/>
      <point x="151" y="809" type="curve" smooth="yes"/>
      <point x="102" y="809"/>
      <point x="62" y="770"/>
      <point x="62" y="721" type="curve" smooth="yes"/>
      <point x="62" y="671"/>
      <point x="101" y="632"/>
    </contour>
    <contour>
      <point x="151" y="673" type="curve" smooth="yes"/>
      <point x="125" y="673"/>
      <point x="104" y="694"/>
      <point x="104" y="721" type="curve" smooth="yes"/>
      <point x="104" y="747"/>
      <point x="126" y="768"/>
      <point x="151" y="768" type="curve" smooth="yes"/>
      <point x="176" y="768"/>
      <point x="198" y="747"/>
      <point x="198" y="721" type="curve" smooth="yes"/>
      <point x="198" y="694"/>
      <point x="177" y="673"/>
    </contour>
  </outline>
</glyph>
<glyph name="hatafpatah-hb" format="2">
  <unicode hex="05B2"/>
  <note>
hatafpatah
</note>
  <anchor x="232" y="0" name="_bottom"/>
  <outline>
    <contour>
      <point x="65" y="-136" type="line"/>
      <point x="267" y="-136" type="line"/>
      <point x="267" y="-74" type="line"/>
      <point x="65" y="-74" type="line"/>
    </contour>
    <contour>
      <point x="352" y="-142" type="curve" smooth="yes"/>
      <point x="372" y="-142"/>
      <point x="389" y="-125"/>
      <point x="389" y="-105" type="curve" smooth="yes"/>
      <point x="389" y="-85"/>
      <point x="372" y="-68"/>
      <point x="352" y="-68" type="curve" smooth="yes"/>
      <point x="332" y="-68"/>
      <point x="315" y="-85"/>
      <point x="315" y="-105" type="curve" smooth="yes"/>
      <point x="315" y="-125"/>
      <point x="332" y="-142"/>
    </contour>
    <contour>
      <point x="352" y="-247" type="curve" smooth="yes"/>
      <point x="372" y="-247"/>
      <point x="389" y="-230"/>
      <point x="389" y="-210" type="curve" smooth="yes"/>
      <point x="389" y="-190"/>
      <point x="372" y="-173"/>
      <point x="352" y="-173" type="curve" smooth="yes"/>
      <point x="332" y="-173"/>
      <point x="315" y="-190"/>
      <point x="315" y="-210" type="curve" smooth="yes"/>
      <point x="315" y="-230"/>
      <point x="332" y="-247"/>
    </contour>
  </outline>
</glyph>
<glyph name="tsere-hb" format="2">
  <unicode hex="05B5"/>
  <note>
tsere
</note>
  <anchor x="166" y="0" name="_bottom"/>
  <outline>
    <contour>
      <point x="101" y="-142" type="curve" smooth="yes"/>
      <point x="121" y="-142"/>
      <point x="138" y="-125"/>
      <point x="138" y="-105" type="curve" smooth="yes"/>
      <point x="138" y="-85"/>
      <point x="121" y="-68"/>
      <point x="101" y="-68" type="curve" smooth="yes"/>
      <point x="81" y="-68"/>
      <point x="64" y="-85"/>
      <point x="64" y="-105" type="curve" smooth="yes"/>
      <point x="64" y="-125"/>
      <point x="81" y="-142"/>
    </contour>
    <contour>
      <point x="231" y="-142" type="curve" smooth="yes"/>
      <point x="251" y="-142"/>
      <point x="268" y="-125"/>
      <point x="268" y="-105" type="curve" smooth="yes"/>
      <point x="268" y="-85"/>
      <point x="251" y="-68"/>
      <point x="231" y="-68" type="curve" smooth="yes"/>
      <point x="211" y="-68"/>
      <point x="194" y="-85"/>
      <point x="194" y="-105" type="curve" smooth="yes"/>
      <point x="194" y="-125"/>
      <point x="211" y="-142"/>
    </contour>
  </outline>
</glyph>
<glyph name="segol-hb" format="2">
  <unicode hex="05B6"/>
  <note>
segol
</note>
  <anchor x="166" y="0" name="_bottom"/>
  <outline>
    <contour>
      <point x="101" y="-142" type="curve" smooth="yes"/>
      <point x="121" y="-142"/>
      <point x="138" y="-125"/>
      <point x="138" y="-105" type="curve" smooth="yes"/>
      <point x="138" y="-85"/>
      <point x="121" y="-68"/>
      <point x="101" y="-68" type="curve" smooth="yes"/>
      <point x="81" y="-68"/>
      <point x="64" y="-85"/>
      <point x="64" y="-105" type="curve" smooth="yes"/>
      <point x="64" y="-125"/>
      <point x="81" y="-142"/>
    </contour>
    <contour>
      <point x="230" y="-142" type="curve" smooth="yes"/>
      <point x="250" y="-142"/>
      <point x="267" y="-125"/>
      <point x="267" y="-105" type="curve" smooth="yes"/>
      <point x="267" y="-85"/>
      <point x="250" y="-68"/>
      <point x="230" y="-68" type="curve" smooth="yes"/>
      <point x="210" y="-68"/>
      <point x="193" y="-85"/>
      <point x="193" y="-105" type="curve" smooth="yes"/>
      <point x="193" y="-125"/>
      <point x="210" y="-142"/>
    </contour>
    <contour>
      <point x="165" y="-247" type="curve" smooth="yes"/>
      <point x="185" y="-247"/>
      <point x="202" y="-230"/>
      <point x="202" y="-210" type="curve" smooth="yes"/>
      <point x="202" y="-190"/>
      <point x="185" y="-173"/>
      <point x="165" y="-173" type="curve" smooth="yes"/>
      <point x="145" y="-173"/>
      <point x="128" y="-190"/>
      <point x="128" y="-210" type="curve" smooth="yes"/>
      <point x="128" y="-230"/>
      <point x="145" y="-247"/>
    </contour>
  </outline>
</glyph>
<glyph name="patah-hb" format="2">
  <unicode hex="05B7"/>
  <note>
patah
</note>
  <anchor x="166" y="0" name="_bottom"/>
  <outline>
    <contour>
      <point x="69" y="-127" type="line"/>
      <point x="263" y="-127" type="line"/>
      <point x="263" y="-74" type="line"/>
      <point x="69" y="-74" type="line"/>
    </contour>
  </outline>
</glyph>
<glyph name="qamats-hb" format="2">
  <unicode hex="05B8"/>
  <note>
qamats
</note>
  <anchor x="166" y="0" name="_bottom"/>
  <outline>
    <contour>
      <point x="139" y="-218" type="line"/>
      <point x="192" y="-218" type="line"/>
      <point x="192" y="-127" type="line"/>
      <point x="263" y="-127" type="line"/>
      <point x="263" y="-74" type="line"/>
      <point x="69" y="-74" type="line"/>
      <point x="69" y="-127" type="line"/>
      <point x="139" y="-127" type="line"/>
    </contour>
  </outline>
</glyph>
<glyph name="holamhaser-hb" format="2">
  <unicode hex="05BA"/>
  <note>
uni05BA
</note>
  <anchor x="101" y="553" name="_topleft"/>
  <outline>
    <contour>
      <point x="101" y="678" type="curve" smooth="yes"/>
      <point x="121" y="678"/>
      <point x="138" y="695"/>
      <point x="138" y="715" type="curve" smooth="yes"/>
      <point x="138" y="735"/>
      <point x="121" y="752"/>
      <point x="101" y="752" type="curve" smooth="yes"/>
      <point x="81" y="752"/>
      <point x="64" y="735"/>
      <point x="64" y="715" type="curve" smooth="yes"/>
      <point x="64" y="695"/>
      <point x="81" y="678"/>
    </contour>
  </outline>
</glyph>
<glyph name="qubuts-hb" format="2">
  <unicode hex="05BB"/>
  <note>
qubuts
</note>
  <anchor x="208" y="0" name="_bottom"/>
  <outline>
    <contour>
      <point x="101" y="-142" type="curve" smooth="yes"/>
      <point x="121" y="-142"/>
      <point x="138" y="-125"/>
      <point x="138" y="-105" type="curve" smooth="yes"/>
      <point x="138" y="-85"/>
      <point x="121" y="-68"/>
      <point x="101" y="-68" type="curve" smooth="yes"/>
      <point x="81" y="-68"/>
      <point x="64" y="-85"/>
      <point x="64" y="-105" type="curve" smooth="yes"/>
      <point x="64" y="-125"/>
      <point x="81" y="-142"/>
    </contour>
    <contour>
      <point x="208" y="-194" type="curve" smooth="yes"/>
      <point x="228" y="-194"/>
      <point x="245" y="-177"/>
      <point x="245" y="-157" type="curve" smooth="yes"/>
      <point x="245" y="-137"/>
      <point x="228" y="-120"/>
      <point x="208" y="-120" type="curve" smooth="yes"/>
      <point x="188" y="-120"/>
      <point x="171" y="-137"/>
      <point x="171" y="-157" type="curve" smooth="yes"/>
      <point x="171" y="-177"/>
      <point x="188" y="-194"/>
    </contour>
    <contour>
      <point x="315" y="-247" type="curve" smooth="yes"/>
      <point x="335" y="-247"/>
      <point x="352" y="-230"/>
      <point x="352" y="-210" type="curve" smooth="yes"/>
      <point x="352" y="-190"/>
      <point x="335" y="-173"/>
      <point x="315" y="-173" type="curve" smooth="yes"/>
      <point x="295" y="-173"/>
      <point x="278" y="-190"/>
      <point x="278" y="-210" type="curve" smooth="yes"/>
      <point x="278" y="-230"/>
      <point x="295" y="-247"/>
    </contour>
  </outline>
</glyph>
<glyph name="dagesh-hb" format="2">
  <unicode hex="05BC"/>
  <note>
dagesh
</note>
  <anchor x="101" y="306" name="_center"/>
  <outline>
    <contour>
      <point x="101" y="269" type="curve" smooth="yes"/>
      <point x="121" y="269"/>
      <point x="138" y="286"/>
      <point x="138" y="306" type="curve" smooth="yes"/>
      <point x="138" y="326"/>
      <point x="121" y="343"/>
      <point x="101" y="343" type="curve" smooth="yes"/>
      <point x="81" y="343"/>
      <point x="64" y="326"/>
      <point x="64" y="306" type="curve" smooth="yes"/>
      <point x="64" y="286"/>
      <point x="81" y="269"/>
    </contour>
  </outline>
</glyph>
<glyph name="siluqleft-hb" format="2">
  <unicode hex="05BD"/>
  <note>
meteg
</note>
  <anchor x="86" y="0" name="_bottomleft"/>
  <outline>
    <contour>
      <point x="54" y="-230" type="line"/>
      <point x="117" y="-230" type="line"/>
      <point x="117" y="-69" type="line"/>
      <point x="54" y="-69" type="line"/>
    </contour>
  </outline>
</glyph>
<glyph name="rafe-hb" format="2">
  <unicode hex="05BF"/>
  <note>
rafe
</note>
  <anchor x="181" y="553" name="_top"/>
  <outline>
    <contour>
      <point x="71" y="684" type="line"/>
      <point x="291" y="684" type="line"/>
      <point x="291" y="737" type="line"/>
      <point x="71" y="737" type="line"/>
    </contour>
  </outline>
</glyph>
<glyph name="upperdot-hb" format="2">
  <unicode hex="05C4"/>
  <note>
upper_dot
</note>
  <anchor x="101" y="553" name="_top"/>
  <outline>
    <contour>
      <point x="101" y="678" type="curve" smooth="yes"/>
      <point x="121" y="678"/>
      <point x="138" y="695"/>
      <point x="138" y="715" type="curve" smooth="yes"/>
      <point x="138" y="735"/>
      <point x="121" y="752"/>
      <point x="101" y="752" type="curve" smooth="yes"/>
      <point x="81" y="752"/>
      <point x="64" y="735"/>
      <point x="64" y="715" type="curve" smooth="yes"/>
      <point x="64" y="695"/>
      <point x="81" y="678"/>
    </contour>
  </outline>
</glyph>
<glyph name="lowerdot-hb" format="2">
  <unicode hex="05C5"/>
  <note>
lowerdot
</note>
  <anchor x="101" y="0" name="_bottom"/>
  <outline>
    <contour>
      <point x="101" y="-142" type="curve" smooth="yes"/>
      <point x="121" y="-142"/>
      <point x="138" y="-125"/>
      <point x="138" y="-105" type="curve" smooth="yes"/>
      <point x="138" y="-85"/>
      <point x="121" y="-68"/>
      <point x="101" y="-68" type="curve" smooth="yes"/>
      <point x="81" y="-68"/>
      <point x="64" y="-85"/>
      <point x="64" y="-105" type="curve" smooth="yes"/>
      <point x="64" y="-125"/>
      <point x="81" y="-142"/>
    </contour>
  </outline>
</glyph>
<glyph name="nunhafukha-hb" format="2">
  <advance width="358"/>
  <unicode hex="05C6"/>
  <note>
uni05C6
</note>
  <outline>
    <contour>
      <point x="50" y="0" type="line"/>
      <point x="338" y="0" type="line"/>
      <point x="338" y="146" type="line"/>
      <point x="220" y="146" type="line"/>
      <point x="220" y="409" type="line" smooth="yes"/>
      <point x="220" y="445"/>
      <point x="233" y="463"/>
      <point x="260" y="463" type="curve" smooth="yes"/>
      <point x="306" y="463" type="line"/>
      <point x="306" y="609" type="line"/>
      <point x="204" y="609" type="line" smooth="yes"/>
      <point x="95" y="609"/>
      <point x="50" y="547"/>
      <point x="50" y="417" type="curve" smooth="yes"/>
    </contour>
  </outline>
</glyph>
<glyph name="qamatsqatan-hb" format="2">
  <unicode hex="05C7"/>
  <note>
qamatsqatan
</note>
  <anchor x="146" y="0" name="_bottom"/>
  <outline>
    <contour>
      <point x="119" y="-192" type="line"/>
      <point x="172" y="-192" type="line"/>
      <point x="172" y="-127" type="line"/>
      <point x="225" y="-127" type="line"/>
      <point x="225" y="-74" type="line"/>
      <point x="67" y="-74" type="line"/>
      <point x="67" y="-127" type="line"/>
      <point x="119" y="-127" type="line"/>
    </contour>
  </outline>
</glyph>
<glyph name="alef-hb" format="2">
  <advance width="552"/>
  <unicode hex="05D0"/>
  <anchor x="259" y="0" name="bottom"/>
  <anchor x="118" y="0" name="bottomleft"/>
  <anchor x="248" y="81" name="center"/>
  <anchor x="254" y="536" name="top"/>
  <anchor x="16" y="536" name="topleft"/>
  <outline>
    <contour>
      <point x="321" y="0" type="curve"/>
      <point x="520" y="0" type="line"/>
      <point x="454" y="152"/>
      <point x="382" y="303"/>
      <point x="320" y="435" type="curve" smooth="yes"/>
      <point x="304" y="470"/>
      <point x="260" y="561"/>
      <point x="240" y="609" type="curve"/>
      <point x="31" y="609" type="line"/>
      <point x="58" y="570"/>
      <point x="130" y="440"/>
      <point x="159" y="381" type="curve" smooth="yes"/>
      <point x="220" y="257"/>
      <point x="263" y="152"/>
    </contour>
    <contour>
      <point x="23" y="0" type="line"/>
      <point x="204" y="0" type="line"/>
      <point x="219" y="226" type="line" smooth="yes"/>
      <point x="223" y="292"/>
      <point x="247" y="341"/>
      <point x="272" y="339" type="curve"/>
      <point x="242" y="431" type="line"/>
      <point x="133" y="408"/>
      <point x="55" y="350"/>
      <point x="45" y="239" type="curve" smooth="yes"/>
    </contour>
    <contour>
      <point x="326" y="247" type="line"/>
      <point x="435" y="260"/>
      <point x="509" y="317"/>
      <point x="517" y="437" type="curve" smooth="yes"/>
      <point x="529" y="609" type="line"/>
      <point x="348" y="609" type="line"/>
      <point x="342" y="450" type="line" smooth="yes"/>
      <point x="339" y="378"/>
      <point x="315" y="344"/>
      <point x="290" y="336" type="curve"/>
    </contour>
  </outline>
</glyph>
<glyph name="bet-hb" format="2">
  <advance width="475"/>
  <unicode hex="05D1"/>
  <anchor x="244" y="0" name="bottom"/>
  <anchor x="33" y="0" name="bottomleft"/>
  <anchor x="104" y="306" name="center"/>
  <anchor x="214" y="553" name="top"/>
  <anchor x="33" y="553" name="topleft"/>
  <outline>
    <contour>
      <point x="204" y="0" type="line"/>
      <point x="311" y="0" type="line"/>
      <point x="344" y="45"/>
      <point x="382" y="98"/>
      <point x="396" y="147" type="curve"/>
      <point x="396" y="382" type="line" smooth="yes"/>
      <point x="396" y="533"/>
      <point x="331" y="609"/>
      <point x="164" y="609" type="curve" smooth="yes"/>
      <point x="53" y="609" type="line"/>
      <point x="33" y="451" type="line"/>
      <point x="155" y="451" type="line" smooth="yes"/>
      <point x="198" y="451"/>
      <point x="204" y="427"/>
      <point x="204" y="379" type="curve" smooth="yes"/>
    </contour>
    <contour>
      <point x="18" y="0" type="line"/>
      <point x="437" y="0" type="line"/>
      <point x="457" y="158" type="line"/>
      <point x="18" y="158" type="line"/>
    </contour>
  </outline>
</glyph>
<glyph name="gimel-hb" format="2">
  <advance width="403"/>
  <unicode hex="05D2"/>
  <anchor x="174" y="3" name="bottom"/>
  <anchor x="36" y="0" name="bottomleft"/>
  <anchor x="79" y="306" name="center"/>
  <anchor x="203" y="553" name="top"/>
  <anchor x="74" y="553" name="topleft"/>
  <outline>
    <contour>
      <point x="210" y="-5" type="line"/>
      <point x="380" y="23" type="line"/>
      <point x="353" y="186" type="line"/>
      <point x="353" y="409" type="line" smooth="yes"/>
      <point x="353" y="539"/>
      <point x="307" y="609"/>
      <point x="156" y="609" type="curve" smooth="yes"/>
      <point x="75" y="609" type="line"/>
      <point x="55" y="450" type="line"/>
      <point x="103" y="450" type="line" smooth="yes"/>
      <point x="152" y="450"/>
      <point x="161" y="439"/>
      <point x="161" y="390" type="curve" smooth="yes"/>
      <point x="161" y="213" type="line"/>
      <point x="139" y="187"/>
      <point x="90" y="164"/>
      <point x="25" y="162" type="curve"/>
      <point x="15" y="162" type="line"/>
      <point x="15" y="0" type="line"/>
      <point x="25" y="0" type="line" smooth="yes"/>
      <point x="102" y="0"/>
      <point x="145" y="13"/>
      <point x="178" y="85" type="curve"/>
      <point x="191" y="85" type="line"/>
    </contour>
  </outline>
</glyph>
<glyph name="dalet-hb" format="2">
  <advance width="461"/>
  <unicode hex="05D3"/>
  <anchor x="264" y="0" name="bottom"/>
  <anchor x="32" y="0" name="bottomleft"/>
  <anchor x="76" y="306" name="center"/>
  <anchor x="236" y="553" name="top"/>
  <anchor x="22" y="553" name="topleft"/>
  <outline>
    <contour>
      <point x="18" y="451" type="line"/>
      <point x="423" y="451" type="line"/>
      <point x="443" y="609" type="line"/>
      <point x="18" y="609" type="line"/>
    </contour>
    <contour>
      <point x="170" y="0" type="line"/>
      <point x="362" y="0" type="line"/>
      <point x="362" y="384" type="line"/>
      <point x="362" y="416"/>
      <point x="362" y="439"/>
      <point x="383" y="451" type="curve"/>
      <point x="230" y="451" type="line"/>
      <point x="181" y="427"/>
      <point x="170" y="366"/>
      <point x="170" y="336" type="curve"/>
    </contour>
  </outline>
</glyph>
<glyph name="he-hb" format="2">
  <advance width="555"/>
  <unicode hex="05D4"/>
  <anchor x="267" y="0" name="bottom"/>
  <anchor x="43" y="0" name="bottomleft"/>
  <anchor x="281" y="306" name="center"/>
  <anchor x="267" y="553" name="top"/>
  <anchor x="43" y="553" name="topleft"/>
  <outline>
    <contour>
      <point x="325" y="0" type="line"/>
      <point x="517" y="0" type="line"/>
      <point x="517" y="382" type="line" smooth="yes"/>
      <point x="517" y="533"/>
      <point x="452" y="609"/>
      <point x="285" y="609" type="curve" smooth="yes"/>
      <point x="58" y="609" type="line"/>
      <point x="38" y="451" type="line"/>
      <point x="276" y="451" type="line" smooth="yes"/>
      <point x="319" y="451"/>
      <point x="325" y="427"/>
      <point x="325" y="379" type="curve" smooth="yes"/>
    </contour>
    <contour>
      <point x="48" y="0" type="line"/>
      <point x="240" y="0" type="line"/>
      <point x="240" y="346" type="line"/>
      <point x="48" y="336" type="line"/>
    </contour>
  </outline>
</glyph>
<glyph name="vav-hb" format="2">
  <advance width="333"/>
  <unicode hex="05D5"/>
  <anchor x="199" y="0" name="bottom"/>
  <anchor x="68" y="0" name="bottomleft"/>
  <anchor x="24" y="306" name="center"/>
  <anchor x="202" y="553" name="top"/>
  <anchor x="202" y="553" name="topleft"/>
  <outline>
    <contour>
      <point x="93" y="0" type="line"/>
      <point x="285" y="0" type="line"/>
      <point x="285" y="609" type="line"/>
      <point x="93" y="609" type="line"/>
    </contour>
    <contour>
      <point x="28" y="451" type="line"/>
      <point x="220" y="451" type="line"/>
      <point x="220" y="609" type="line"/>
      <point x="48" y="609" type="line"/>
    </contour>
  </outline>
</glyph>
<glyph name="zayin-hb" format="2">
  <advance width="347"/>
  <unicode hex="05D6"/>
  <anchor x="175" y="0" name="bottom"/>
  <anchor x="45" y="0" name="bottomleft"/>
  <anchor x="-10" y="307" name="center"/>
  <anchor x="191" y="553" name="top"/>
  <anchor x="60" y="553" name="topleft"/>
  <outline>
    <contour>
      <point x="76" y="3" type="curve"/>
      <point x="276" y="3" type="line"/>
      <point x="272" y="48"/>
      <point x="238" y="223"/>
      <point x="236" y="288" type="curve" smooth="yes"/>
      <point x="234" y="356"/>
      <point x="244" y="417"/>
      <point x="304" y="451" type="curve"/>
      <point x="181" y="455" type="line"/>
      <point x="69" y="405"/>
      <point x="51" y="329"/>
      <point x="47" y="262" type="curve" smooth="yes"/>
      <point x="43" y="197"/>
      <point x="60" y="92"/>
    </contour>
    <contour>
      <point x="28" y="451" type="line"/>
      <point x="304" y="451" type="line"/>
      <point x="324" y="609" type="line"/>
      <point x="28" y="609" type="line"/>
    </contour>
  </outline>
</glyph>
<glyph name="het-hb" format="2">
  <advance width="583"/>
  <unicode hex="05D7"/>
  <anchor x="294" y="0" name="bottom"/>
  <anchor x="68" y="0" name="bottomleft"/>
  <anchor x="294" y="306" name="center"/>
  <anchor x="294" y="553" name="top"/>
  <anchor x="68" y="553" name="topleft"/>
  <outline>
    <contour>
      <point x="293" y="609" type="curve" smooth="yes"/>
      <point x="88" y="609" type="line"/>
      <point x="88" y="457" type="line"/>
      <point x="88" y="447" type="line"/>
      <point x="52" y="403"/>
      <point x="48" y="364"/>
      <point x="48" y="316" type="curve"/>
      <point x="48" y="0" type="line"/>
      <point x="240" y="0" type="line"/>
      <point x="240" y="377" type="line"/>
      <point x="240" y="429"/>
      <point x="243" y="441"/>
      <point x="250" y="451" type="curve"/>
      <point x="284" y="451" type="line" smooth="yes"/>
      <point x="327" y="451"/>
      <point x="353" y="427"/>
      <point x="353" y="379" type="curve" smooth="yes"/>
      <point x="353" y="0" type="line"/>
      <point x="545" y="0" type="line"/>
      <point x="545" y="382" type="line" smooth="yes"/>
      <point x="545" y="533"/>
      <point x="460" y="609"/>
    </contour>
    <contour>
      <point x="28" y="451" type="line"/>
      <point x="253" y="451" type="line"/>
      <point x="253" y="609" type="line"/>
      <point x="48" y="609" type="line"/>
    </contour>
  </outline>
</glyph>
<glyph name="tet-hb" format="2">
  <advance width="564"/>
  <unicode hex="05D8"/>
  <anchor x="284" y="0" name="bottom"/>
  <anchor x="49" y="0" name="bottomleft"/>
  <anchor x="280" y="306" name="center"/>
  <anchor x="284" y="553" name="top"/>
  <anchor x="39" y="553" name="topleft"/>
  <outline>
    <contour>
      <point x="285" y="-9" type="curve" smooth="yes"/>
      <point x="450" y="-9"/>
      <point x="536" y="107"/>
      <point x="536" y="330" type="curve" smooth="yes"/>
      <point x="536" y="519"/>
      <point x="468" y="617"/>
      <point x="339" y="617" type="curve" smooth="yes"/>
      <point x="308" y="617"/>
      <point x="282" y="612"/>
      <point x="265" y="603" type="curve"/>
      <point x="265" y="451" type="line"/>
      <point x="271" y="460"/>
      <point x="284" y="464"/>
      <point x="304" y="464" type="curve" smooth="yes"/>
      <point x="331" y="464"/>
      <point x="345" y="418"/>
      <point x="345" y="330" type="curve" smooth="yes"/>
      <point x="345" y="208"/>
      <point x="323" y="144"/>
      <point x="281" y="144" type="curve" smooth="yes"/>
      <point x="240" y="144"/>
      <point x="219" y="208"/>
      <point x="219" y="330" type="curve" smooth="yes"/>
      <point x="219" y="609" type="line"/>
      <point x="28" y="609" type="line"/>
      <point x="28" y="330" type="line" smooth="yes"/>
      <point x="28" y="107"/>
      <point x="116" y="-9"/>
    </contour>
  </outline>
</glyph>
<glyph name="yod-hb" format="2">
  <advance width="328"/>
  <unicode hex="05D9"/>
  <anchor x="200" y="0" name="bottom"/>
  <anchor x="37" y="0" name="bottomleft"/>
  <anchor x="36" y="374" name="center"/>
  <anchor x="200" y="553" name="top"/>
  <anchor x="114" y="553" name="topleft"/>
  <outline>
    <contour>
      <point x="93" y="238" type="line"/>
      <point x="285" y="238" type="line"/>
      <point x="285" y="609" type="line"/>
      <point x="93" y="609" type="line"/>
    </contour>
    <contour>
      <point x="28" y="451" type="line"/>
      <point x="200" y="451" type="line"/>
      <point x="200" y="609" type="line"/>
      <point x="48" y="609" type="line"/>
    </contour>
  </outline>
</glyph>
<glyph name="finalkaf-hb" format="2">
  <advance width="453"/>
  <unicode hex="05DA"/>
  <anchor x="118" y="241" name="bottom"/>
  <anchor x="24" y="0" name="bottomleft"/>
  <anchor x="121" y="306" name="center"/>
  <anchor x="206" y="553" name="top"/>
  <anchor x="14" y="553" name="topleft"/>
  <outline>
    <contour>
      <point x="223" y="-180" type="line"/>
      <point x="415" y="-170" type="line"/>
      <point x="415" y="367" type="line" smooth="yes"/>
      <point x="415" y="526"/>
      <point x="344" y="609"/>
      <point x="171" y="609" type="curve" smooth="yes"/>
      <point x="38" y="609" type="line"/>
      <point x="18" y="451" type="line"/>
      <point x="163" y="451" type="line" smooth="yes"/>
      <point x="216" y="451"/>
      <point x="223" y="422"/>
      <point x="223" y="367" type="curve" smooth="yes"/>
    </contour>
  </outline>
</glyph>
<glyph name="kaf-hb" format="2">
  <advance width="428"/>
  <unicode hex="05DB"/>
  <anchor x="170" y="0" name="bottom"/>
  <anchor x="22" y="0" name="bottomleft"/>
  <anchor x="117" y="306" name="center"/>
  <anchor x="191" y="553" name="top"/>
  <anchor x="22" y="553" name="topleft"/>
  <outline>
    <contour>
      <point x="23" y="0" type="line"/>
      <point x="141" y="0" type="line" smooth="yes"/>
      <point x="325" y="0"/>
      <point x="410" y="93"/>
      <point x="410" y="297" type="curve" smooth="yes"/>
      <point x="410" y="511"/>
      <point x="325" y="609"/>
      <point x="141" y="609" type="curve" smooth="yes"/>
      <point x="43" y="609" type="line"/>
      <point x="23" y="451" type="line"/>
      <point x="141" y="451" type="line" smooth="yes"/>
      <point x="192" y="451"/>
      <point x="215" y="403"/>
      <point x="215" y="297" type="curve" smooth="yes"/>
      <point x="215" y="202"/>
      <point x="192" y="158"/>
      <point x="141" y="158" type="curve" smooth="yes"/>
      <point x="23" y="158" type="line"/>
    </contour>
  </outline>
</glyph>
<glyph name="lamed-hb" format="2">
  <advance width="486"/>
  <unicode hex="05DC"/>
  <anchor x="228" y="0" name="bottom"/>
  <anchor x="55" y="0" name="bottomleft"/>
  <anchor x="118" y="306" name="center"/>
  <anchor x="325" y="553" name="top"/>
  <anchor x="-23" y="553" name="topleft"/>
  <outline>
    <contour>
      <point x="217" y="609" type="line"/>
      <point x="217" y="760" type="line"/>
      <point x="25" y="740" type="line"/>
      <point x="25" y="451" type="line"/>
      <point x="255" y="451" type="line"/>
      <point x="137" y="0" type="line"/>
      <point x="328" y="0" type="line"/>
      <point x="447" y="499" type="line"/>
      <point x="471" y="609" type="line"/>
    </contour>
  </outline>
</glyph>
<glyph name="finalmem-hb" format="2">
  <advance width="580"/>
  <unicode hex="05DD"/>
  <anchor x="292" y="0" name="bottom"/>
  <anchor x="63" y="0" name="bottomleft"/>
  <anchor x="292" y="304" name="center"/>
  <anchor x="292" y="553" name="top"/>
  <anchor x="62" y="553" name="topleft"/>
  <outline>
    <contour>
      <point x="310" y="609" type="curve" smooth="yes"/>
      <point x="38" y="609" type="line"/>
      <point x="18" y="451" type="line"/>
      <point x="108" y="451" type="line"/>
      <point x="59" y="427"/>
      <point x="48" y="366"/>
      <point x="48" y="336" type="curve" smooth="yes"/>
      <point x="48" y="0" type="line"/>
      <point x="542" y="0" type="line"/>
      <point x="542" y="382" type="line" smooth="yes"/>
      <point x="542" y="533"/>
      <point x="477" y="609"/>
    </contour>
    <contour>
      <point x="350" y="158" type="line"/>
      <point x="240" y="158" type="line"/>
      <point x="240" y="384" type="line" smooth="yes"/>
      <point x="240" y="406"/>
      <point x="240" y="429"/>
      <point x="250" y="451" type="curve"/>
      <point x="301" y="451" type="line" smooth="yes"/>
      <point x="344" y="451"/>
      <point x="350" y="427"/>
      <point x="350" y="379" type="curve" smooth="yes"/>
    </contour>
  </outline>
</glyph>
<glyph name="mem-hb" format="2">
  <advance width="621"/>
  <unicode hex="05DE"/>
  <anchor x="324" y="0" name="bottom"/>
  <anchor x="178" y="0" name="bottomleft"/>
  <anchor x="335" y="306" name="center"/>
  <anchor x="348" y="553" name="top"/>
  <anchor x="82" y="553" name="topleft"/>
  <outline>
    <contour>
      <point x="44" y="0" type="line"/>
      <point x="236" y="0" type="line"/>
      <point x="267" y="312" type="line" smooth="yes"/>
      <point x="277" y="408"/>
      <point x="305" y="458"/>
      <point x="338" y="458" type="curve" smooth="yes"/>
      <point x="383" y="458"/>
      <point x="406" y="411"/>
      <point x="406" y="320" type="curve" smooth="yes"/>
      <point x="406" y="307" type="line" smooth="yes"/>
      <point x="406" y="209"/>
      <point x="381" y="158"/>
      <point x="329" y="158" type="curve" smooth="yes"/>
      <point x="304" y="158" type="line"/>
      <point x="289" y="0" type="line"/>
      <point x="339" y="0" type="line" smooth="yes"/>
      <point x="511" y="0"/>
      <point x="598" y="105"/>
      <point x="598" y="307" type="curve" smooth="yes"/>
      <point x="598" y="320" type="line" smooth="yes"/>
      <point x="598" y="516"/>
      <point x="527" y="619"/>
      <point x="390" y="619" type="curve" smooth="yes"/>
      <point x="308" y="619"/>
      <point x="253" y="577"/>
      <point x="231" y="496" type="curve"/>
      <point x="225" y="496" type="line"/>
      <point x="215" y="609" type="line"/>
      <point x="23" y="609" type="line"/>
      <point x="88" y="353" type="line"/>
    </contour>
  </outline>
</glyph>
<glyph name="finalnun-hb" format="2">
  <advance width="313"/>
  <unicode hex="05DF"/>
  <anchor x="32" y="0" name="bottomleft"/>
  <anchor x="41" y="306" name="center"/>
  <anchor x="150" y="553" name="top"/>
  <anchor x="22" y="553" name="topleft"/>
  <outline>
    <contour>
      <point x="83" y="-180" type="line"/>
      <point x="275" y="-170" type="line"/>
      <point x="275" y="609" type="line"/>
      <point x="83" y="609" type="line"/>
    </contour>
    <contour>
      <point x="18" y="451" type="line"/>
      <point x="210" y="451" type="line"/>
      <point x="210" y="609" type="line"/>
      <point x="38" y="609" type="line"/>
    </contour>
  </outline>
</glyph>
<glyph name="nun-hb" format="2">
  <advance width="366"/>
  <unicode hex="05E0"/>
  <anchor x="169" y="0" name="bottom"/>
  <anchor x="-7" y="0" name="bottomleft"/>
  <anchor x="64" y="306" name="center"/>
  <anchor x="185" y="553" name="top"/>
  <anchor x="56" y="553" name="topleft"/>
  <outline>
    <contour>
      <point x="130" y="0" type="line"/>
      <point x="322" y="0" type="line"/>
      <point x="322" y="411" type="line" smooth="yes"/>
      <point x="322" y="540"/>
      <point x="274" y="609"/>
      <point x="129" y="609" type="curve" smooth="yes"/>
      <point x="58" y="609" type="line"/>
      <point x="38" y="451" type="line"/>
      <point x="76" y="451" type="line" smooth="yes"/>
      <point x="129" y="451"/>
      <point x="130" y="440"/>
      <point x="130" y="392" type="curve" smooth="yes"/>
    </contour>
    <contour>
      <point x="28" y="0" type="line"/>
      <point x="222" y="0" type="line"/>
      <point x="222" y="158" type="line"/>
      <point x="28" y="158" type="line"/>
    </contour>
  </outline>
</glyph>
<glyph name="samekh-hb" format="2">
  <advance width="594"/>
  <unicode hex="05E1"/>
  <anchor x="302" y="0" name="bottom"/>
  <anchor x="77" y="0" name="bottomleft"/>
  <anchor x="298" y="306" name="center"/>
  <anchor x="302" y="553" name="top"/>
  <anchor x="33" y="553" name="topleft"/>
  <outline>
    <contour>
      <point x="298" y="-9" type="curve" smooth="yes"/>
      <point x="467" y="-9"/>
      <point x="566" y="113"/>
      <point x="566" y="320" type="curve" smooth="yes"/>
      <point x="566" y="502"/>
      <point x="473" y="609"/>
      <point x="314" y="609" type="curve" smooth="yes"/>
      <point x="48" y="609" type="line"/>
      <point x="28" y="451" type="line"/>
      <point x="324" y="451" type="line" smooth="yes"/>
      <point x="358" y="451"/>
      <point x="377" y="403"/>
      <point x="377" y="322" type="curve" smooth="yes"/>
      <point x="377" y="210"/>
      <point x="348" y="144"/>
      <point x="298" y="144" type="curve" smooth="yes"/>
      <point x="253" y="144"/>
      <point x="227" y="207"/>
      <point x="227" y="314" type="curve" smooth="yes"/>
      <point x="227" y="400"/>
      <point x="246" y="451"/>
      <point x="278" y="451" type="curve"/>
      <point x="278" y="461" type="line"/>
      <point x="132" y="460" type="line"/>
      <point x="132" y="445" type="line"/>
      <point x="73" y="427"/>
      <point x="38" y="361"/>
      <point x="38" y="268" type="curve"/>
      <point x="38" y="260" type="line" smooth="yes"/>
      <point x="38" y="91"/>
      <point x="134" y="-9"/>
    </contour>
  </outline>
</glyph>
<glyph name="ayin-hb" format="2">
  <advance width="555"/>
  <unicode hex="05E2"/>
  <anchor x="271" y="0" name="bottom"/>
  <anchor x="32" y="0" name="bottomleft"/>
  <anchor x="284" y="444" name="center"/>
  <anchor x="302" y="553" name="top"/>
  <anchor x="71" y="553" name="topleft"/>
  <outline>
    <contour>
      <point x="13" y="-40" type="line"/>
      <point x="266" y="18" type="line" smooth="yes"/>
      <point x="414" y="52"/>
      <point x="490" y="144"/>
      <point x="506" y="344" type="curve" smooth="yes"/>
      <point x="527" y="609" type="line"/>
      <point x="335" y="609" type="line"/>
      <point x="310" y="290" type="line" smooth="yes"/>
      <point x="305" y="231"/>
      <point x="298" y="182"/>
      <point x="253" y="172" type="curve" smooth="yes"/>
      <point x="13" y="118" type="line"/>
    </contour>
    <contour>
      <point x="114" y="67" type="line"/>
      <point x="185" y="67" type="line"/>
      <point x="254" y="130"/>
      <point x="274" y="226"/>
      <point x="261" y="291" type="curve"/>
      <point x="211" y="619" type="line"/>
      <point x="22" y="597" type="line"/>
    </contour>
  </outline>
</glyph>
<glyph name="finalpe-hb" format="2">
  <advance width="551"/>
  <unicode hex="05E3"/>
  <anchor x="285" y="225" name="bottom"/>
  <anchor x="70" y="0" name="bottomleft"/>
  <anchor x="265" y="400" name="center"/>
  <anchor x="292" y="553" name="top"/>
  <anchor x="55" y="553" name="topleft"/>
  <outline>
    <contour>
      <point x="332" y="-180" type="line"/>
      <point x="524" y="-170" type="line"/>
      <point x="524" y="368" type="line" smooth="yes"/>
      <point x="524" y="533"/>
      <point x="431" y="619"/>
      <point x="252" y="619" type="curve" smooth="yes"/>
      <point x="98" y="619"/>
      <point x="18" y="545"/>
      <point x="18" y="404" type="curve" smooth="yes"/>
      <point x="18" y="296"/>
      <point x="67" y="229"/>
      <point x="161" y="209" type="curve" smooth="yes"/>
      <point x="204" y="200"/>
      <point x="235" y="197"/>
      <point x="253" y="201" type="curve"/>
      <point x="269" y="337" type="line"/>
      <point x="257" y="337"/>
      <point x="244" y="340"/>
      <point x="233" y="347" type="curve" smooth="yes"/>
      <point x="212" y="358"/>
      <point x="201" y="376"/>
      <point x="201" y="398" type="curve" smooth="yes"/>
      <point x="201" y="439"/>
      <point x="218" y="461"/>
      <point x="252" y="461" type="curve" smooth="yes"/>
      <point x="305" y="461"/>
      <point x="332" y="429"/>
      <point x="332" y="367" type="curve" smooth="yes"/>
    </contour>
  </outline>
</glyph>
<glyph name="pe-hb" format="2">
  <advance width="552"/>
  <unicode hex="05E4"/>
  <anchor x="256" y="0" name="bottom"/>
  <anchor x="54" y="0" name="bottomleft"/>
  <anchor x="260" y="397" name="center"/>
  <anchor x="271" y="553" name="top"/>
  <anchor x="54" y="553" name="topleft"/>
  <outline>
    <contour>
      <point x="51" y="0" type="line"/>
      <point x="214" y="0" type="line" smooth="yes"/>
      <point x="423" y="0"/>
      <point x="529" y="115"/>
      <point x="529" y="310" type="curve" smooth="yes"/>
      <point x="529" y="504"/>
      <point x="428" y="619"/>
      <point x="257" y="619" type="curve" smooth="yes"/>
      <point x="110" y="619"/>
      <point x="23" y="539"/>
      <point x="23" y="404" type="curve" smooth="yes"/>
      <point x="23" y="302"/>
      <point x="76" y="230"/>
      <point x="166" y="209" type="curve" smooth="yes"/>
      <point x="201" y="201"/>
      <point x="231" y="198"/>
      <point x="248" y="201" type="curve"/>
      <point x="264" y="337" type="line"/>
      <point x="251" y="337"/>
      <point x="238" y="341"/>
      <point x="230" y="349" type="curve" smooth="yes"/>
      <point x="215" y="361"/>
      <point x="206" y="379"/>
      <point x="206" y="398" type="curve" smooth="yes"/>
      <point x="206" y="438"/>
      <point x="225" y="461"/>
      <point x="257" y="461" type="curve" smooth="yes"/>
      <point x="305" y="461"/>
      <point x="334" y="405"/>
      <point x="334" y="310" type="curve" smooth="yes"/>
      <point x="334" y="214"/>
      <point x="308" y="158"/>
      <point x="234" y="158" type="curve" smooth="yes"/>
      <point x="51" y="158" type="line"/>
    </contour>
  </outline>
</glyph>
<glyph name="finaltsadi-hb" format="2">
  <advance width="530"/>
  <unicode hex="05E5"/>
  <anchor x="51" y="0" name="bottomleft"/>
  <anchor x="272" y="535" name="center"/>
  <anchor x="260" y="553" name="top"/>
  <anchor x="29" y="553" name="topleft"/>
  <outline>
    <contour>
      <point x="189" y="-180" type="line"/>
      <point x="382" y="-170" type="line"/>
      <point x="348" y="32" type="line"/>
      <point x="330" y="153"/>
      <point x="301" y="273"/>
      <point x="271" y="394" type="curve" smooth="yes"/>
      <point x="253" y="466"/>
      <point x="235" y="547"/>
      <point x="216" y="609" type="curve"/>
      <point x="8" y="609" type="line"/>
      <point x="38" y="519"/>
      <point x="60" y="448"/>
      <point x="81" y="368" type="curve" smooth="yes"/>
      <point x="110" y="256"/>
      <point x="138" y="144"/>
      <point x="156" y="32" type="curve"/>
    </contour>
    <contour>
      <point x="277" y="177" type="line"/>
      <point x="456" y="205"/>
      <point x="502" y="341"/>
      <point x="502" y="513" type="curve" smooth="yes"/>
      <point x="502" y="609" type="line"/>
      <point x="313" y="609" type="line"/>
      <point x="312" y="526" type="line" smooth="yes"/>
      <point x="311" y="402"/>
      <point x="316" y="328"/>
      <point x="224" y="300" type="curve"/>
    </contour>
  </outline>
</glyph>
<glyph name="tsadi-hb" format="2">
  <advance width="540"/>
  <unicode hex="05E6"/>
  <anchor x="250" y="0" name="bottom"/>
  <anchor x="49" y="0" name="bottomleft"/>
  <anchor x="97" y="245" name="center"/>
  <anchor x="279" y="553" name="top"/>
  <anchor x="36" y="553" name="topleft"/>
  <outline>
    <contour>
      <point x="307" y="0" type="line"/>
      <point x="471" y="110" type="line"/>
      <point x="308" y="374" type="line"/>
      <point x="233" y="609" type="line"/>
      <point x="18" y="609" type="line"/>
    </contour>
    <contour>
      <point x="32" y="0" type="line"/>
      <point x="454" y="0" type="line"/>
      <point x="471" y="110" type="line"/>
      <point x="416" y="158" type="line"/>
      <point x="32" y="158" type="line"/>
    </contour>
    <contour>
      <point x="304" y="243" type="line"/>
      <point x="453" y="278"/>
      <point x="500" y="384"/>
      <point x="508" y="487" type="curve" smooth="yes"/>
      <point x="517" y="609" type="line"/>
      <point x="336" y="609" type="line"/>
      <point x="325" y="500" type="line" smooth="yes"/>
      <point x="319" y="445"/>
      <point x="319" y="381"/>
      <point x="256" y="366" type="curve"/>
    </contour>
  </outline>
</glyph>
<glyph name="qof-hb" format="2">
  <advance width="576"/>
  <unicode hex="05E7"/>
  <anchor x="398" y="0" name="bottom"/>
  <anchor x="4" y="0" name="bottomleft"/>
  <anchor x="277" y="316" name="center"/>
  <anchor x="298" y="553" name="top"/>
  <anchor x="57" y="553" name="topleft"/>
  <outline>
    <contour>
      <point x="274" y="0" type="line"/>
      <point x="456" y="0" type="line"/>
      <point x="545" y="498" type="line"/>
      <point x="563" y="609" type="line"/>
      <point x="48" y="609" type="line"/>
      <point x="28" y="453" type="line"/>
      <point x="350" y="453" type="line"/>
    </contour>
    <contour>
      <point x="38" y="-180" type="line"/>
      <point x="230" y="-170" type="line"/>
      <point x="230" y="366" type="line"/>
      <point x="38" y="356" type="line"/>
    </contour>
  </outline>
</glyph>
<glyph name="resh-hb" format="2">
  <advance width="450"/>
  <unicode hex="05E8"/>
  <anchor x="314" y="0" name="bottom"/>
  <anchor x="188" y="0" name="bottomleft"/>
  <anchor x="125" y="306" name="center"/>
  <anchor x="210" y="553" name="top"/>
  <anchor x="19" y="553" name="topleft"/>
  <outline>
    <contour>
      <point x="220" y="0" type="line"/>
      <point x="412" y="0" type="line"/>
      <point x="412" y="382" type="line" smooth="yes"/>
      <point x="412" y="533"/>
      <point x="347" y="609"/>
      <point x="180" y="609" type="curve" smooth="yes"/>
      <point x="38" y="609" type="line"/>
      <point x="18" y="451" type="line"/>
      <point x="171" y="451" type="line" smooth="yes"/>
      <point x="214" y="451"/>
      <point x="220" y="427"/>
      <point x="220" y="379" type="curve" smooth="yes"/>
    </contour>
  </outline>
</glyph>
<glyph name="shin-hb" format="2">
  <advance width="670"/>
  <unicode hex="05E9"/>
  <anchor x="338" y="0" name="bottom"/>
  <anchor x="95" y="0" name="bottomleft"/>
  <anchor x="371" y="225" name="center"/>
  <anchor x="346" y="553" name="top"/>
  <anchor x="126" y="553" name="topleft"/>
  <anchor x="544" y="553" name="topright"/>
  <outline>
    <contour>
      <point x="338" y="-9" type="curve" smooth="yes"/>
      <point x="340" y="-9" type="line" smooth="yes"/>
      <point x="562" y="-9"/>
      <point x="642" y="111"/>
      <point x="642" y="368" type="curve" smooth="yes"/>
      <point x="642" y="609" type="line"/>
      <point x="451" y="609" type="line"/>
      <point x="451" y="370" type="line" smooth="yes"/>
      <point x="451" y="203"/>
      <point x="436" y="144"/>
      <point x="335" y="144" type="curve" smooth="yes"/>
      <point x="334" y="144" type="line" smooth="yes"/>
      <point x="244" y="144"/>
      <point x="219" y="203"/>
      <point x="219" y="372" type="curve" smooth="yes"/>
      <point x="219" y="609" type="line"/>
      <point x="28" y="609" type="line"/>
      <point x="28" y="369" type="line" smooth="yes"/>
      <point x="28" y="112"/>
      <point x="121" y="-9"/>
    </contour>
    <contour>
      <point x="129" y="231" type="line"/>
      <point x="367" y="224"/>
      <point x="417" y="338"/>
      <point x="417" y="528" type="curve" smooth="yes"/>
      <point x="417" y="609" type="line"/>
      <point x="256" y="609" type="line"/>
      <point x="256" y="519" type="line" smooth="yes"/>
      <point x="256" y="401"/>
      <point x="246" y="340"/>
      <point x="119" y="348" type="curve"/>
    </contour>
  </outline>
</glyph>
<glyph name="tav-hb" format="2">
  <advance width="602"/>
  <unicode hex="05EA"/>
  <anchor x="327" y="0" name="bottom"/>
  <anchor x="55" y="0" name="bottomleft"/>
  <anchor x="327" y="306" name="center"/>
  <anchor x="327" y="553" name="top"/>
  <anchor x="55" y="553" name="topleft"/>
  <outline>
    <contour>
      <point x="372" y="0" type="line"/>
      <point x="564" y="0" type="line"/>
      <point x="564" y="382" type="line" smooth="yes"/>
      <point x="564" y="533"/>
      <point x="499" y="609"/>
      <point x="332" y="609" type="curve" smooth="yes"/>
      <point x="91" y="609" type="line"/>
      <point x="91" y="451" type="line"/>
      <point x="323" y="451" type="line" smooth="yes"/>
      <point x="366" y="451"/>
      <point x="372" y="427"/>
      <point x="372" y="379" type="curve" smooth="yes"/>
    </contour>
    <contour>
      <point x="13" y="0" type="line"/>
      <point x="105" y="0" type="line" smooth="yes"/>
      <point x="235" y="0"/>
      <point x="283" y="76"/>
      <point x="283" y="221" type="curve" smooth="yes"/>
      <point x="283" y="574" type="line"/>
      <point x="91" y="574" type="line"/>
      <point x="91" y="211" type="line" smooth="yes"/>
      <point x="91" y="176"/>
      <point x="95" y="158"/>
      <point x="64" y="158" type="curve" smooth="yes"/>
      <point x="33" y="158" type="line"/>
    </contour>
    <contour>
      <point x="20" y="451" type="line"/>
      <point x="212" y="451" type="line"/>
      <point x="212" y="609" type="line"/>
      <point x="40" y="609" type="line"/>
    </contour>
  </outline>
</glyph>
<glyph name="geresh-hb" format="2">
  <advance width="259"/>
  <unicode hex="05F3"/>
  <outline>
    <contour>
      <point x="25" y="324" type="curve"/>
      <point x="159" y="324" type="line"/>
      <point x="188" y="397"/>
      <point x="209" y="488"/>
      <point x="224" y="598" type="curve"/>
      <point x="219" y="609" type="line"/>
      <point x="61" y="609" type="line"/>
      <point x="58" y="542"/>
      <point x="37" y="394"/>
    </contour>
  </outline>
</glyph>
<glyph name="gershayim-hb" format="2">
  <advance width="479"/>
  <unicode hex="05F4"/>
  <outline>
    <contour>
      <point x="25" y="324" type="curve"/>
      <point x="159" y="324" type="line"/>
      <point x="188" y="397"/>
      <point x="209" y="488"/>
      <point x="224" y="598" type="curve"/>
      <point x="219" y="609" type="line"/>
      <point x="61" y="609" type="line"/>
      <point x="58" y="542"/>
      <point x="37" y="394"/>
    </contour>
    <contour>
      <point x="254" y="324" type="curve"/>
      <point x="388" y="324" type="line"/>
      <point x="417" y="397"/>
      <point x="439" y="488"/>
      <point x="454" y="598" type="curve"/>
      <point x="448" y="609" type="line"/>
      <point x="291" y="609" type="line"/>
      <point x="284" y="519"/>
      <point x="271" y="421"/>
    </contour>
  </outline>
</glyph>
<glyph name="sheqel" format="2">
  <advance width="749"/>
  <unicode hex="20AA"/>
  <note>
sheqel
</note>
  <outline>
    <contour>
      <point x="258" y="0" type="line"/>
      <point x="456" y="0" type="line" smooth="yes"/>
      <point x="608" y="0"/>
      <point x="694" y="83"/>
      <point x="694" y="309" type="curve" smooth="yes"/>
      <point x="694" y="609" type="line"/>
      <point x="534" y="609" type="line"/>
      <point x="534" y="309" type="line" smooth="yes"/>
      <point x="534" y="181"/>
      <point x="523" y="147"/>
      <point x="407" y="147" type="curve" smooth="yes"/>
      <point x="358" y="147" type="line"/>
      <point x="358" y="390" type="line"/>
      <point x="258" y="390" type="line"/>
    </contour>
    <contour>
      <point x="60" y="0" type="line"/>
      <point x="220" y="0" type="line"/>
      <point x="220" y="462" type="line"/>
      <point x="349" y="462" type="line" smooth="yes"/>
      <point x="387" y="462"/>
      <point x="396" y="437"/>
      <point x="396" y="390" type="curve" smooth="yes"/>
      <point x="396" y="225" type="line"/>
      <point x="496" y="225" type="line"/>
      <point x="496" y="418" type="line" smooth="yes"/>
      <point x="496" y="560"/>
      <point x="455" y="609"/>
      <point x="309" y="609" type="curve" smooth="yes"/>
      <point x="60" y="609" type="line"/>
    </contour>
  </outline>
</glyph>
<glyph name="judeospanishvarika-hb" format="2">
  <unicode hex="FB1E"/>
  <note>
uniFB1E
</note>
  <anchor x="166" y="553" name="_top"/>
  <outline>
    <contour>
      <point x="269" y="752" type="curve"/>
      <point x="219" y="752" type="line"/>
      <point x="219" y="717"/>
      <point x="199" y="698"/>
      <point x="166" y="698" type="curve" smooth="yes"/>
      <point x="132" y="698"/>
      <point x="113" y="722"/>
      <point x="113" y="752" type="curve"/>
      <point x="64" y="752" type="line"/>
      <point x="64" y="690"/>
      <point x="102" y="647"/>
      <point x="166" y="647" type="curve" smooth="yes"/>
      <point x="231" y="647"/>
      <point x="269" y="690"/>
    </contour>
  </outline>
</glyph>
<glyph name="ayinaltone-hb" format="2">
  <advance width="624"/>
  <unicode hex="FB20"/>
  <note>
alternativeayin
</note>
  <anchor x="287" y="0" name="bottom"/>
  <anchor x="-2" y="0" name="bottomleft"/>
  <anchor x="272" y="553" name="top"/>
  <anchor x="41" y="553" name="topleft"/>
  <outline>
    <contour>
      <point x="25" y="0" type="line"/>
      <point x="268" y="0" type="line" smooth="yes"/>
      <point x="553" y="0"/>
      <point x="561" y="251"/>
      <point x="573" y="407" type="curve" smooth="yes"/>
      <point x="589" y="609" type="line"/>
      <point x="397" y="609" type="line"/>
      <point x="382" y="414" type="line" smooth="yes"/>
      <point x="368" y="231"/>
      <point x="349" y="157"/>
      <point x="268" y="157" type="curve" smooth="yes"/>
      <point x="25" y="158" type="line"/>
    </contour>
    <contour>
      <point x="158" y="67" type="line"/>
      <point x="229" y="67" type="line"/>
      <point x="289" y="122"/>
      <point x="317" y="214"/>
      <point x="301" y="291" type="curve"/>
      <point x="245" y="619" type="line"/>
      <point x="57" y="597" type="line"/>
    </contour>
  </outline>
</glyph>
<glyph name="widealef-hb" format="2">
  <advance width="695"/>
  <unicode hex="FB21"/>
  <note>
alefwide
</note>
  <outline>
    <contour>
      <point x="456" y="0" type="curve"/>
      <point x="679" y="0" type="line"/>
      <point x="583" y="152"/>
      <point x="481" y="283"/>
      <point x="386" y="434" type="curve" smooth="yes"/>
      <point x="364" y="469"/>
      <point x="301" y="561"/>
      <point x="262" y="609" type="curve"/>
      <point x="26" y="609" type="line"/>
      <point x="60" y="570"/>
      <point x="158" y="438"/>
      <point x="204" y="381" type="curve" smooth="yes"/>
      <point x="305" y="256"/>
      <point x="368" y="152"/>
    </contour>
    <contour>
      <point x="15" y="0" type="line"/>
      <point x="206" y="0" type="line"/>
      <point x="229" y="145" type="line" smooth="yes"/>
      <point x="238" y="203"/>
      <point x="243" y="264"/>
      <point x="295" y="279" type="curve"/>
      <point x="240" y="402" type="line"/>
      <point x="92" y="367"/>
      <point x="55" y="261"/>
      <point x="39" y="158" type="curve" smooth="yes"/>
    </contour>
    <contour>
      <point x="455" y="243" type="line"/>
      <point x="605" y="278"/>
      <point x="656" y="384"/>
      <point x="667" y="487" type="curve" smooth="yes"/>
      <point x="680" y="609" type="line"/>
      <point x="489" y="609" type="line"/>
      <point x="475" y="500" type="line" smooth="yes"/>
      <point x="468" y="445"/>
      <point x="464" y="381"/>
      <point x="401" y="366" type="curve"/>
    </contour>
  </outline>
</glyph>
<glyph name="widedalet-hb" format="2">
  <advance width="607"/>
  <unicode hex="FB22"/>
  <note>
daletwide
</note>
  <outline>
    <contour>
      <point x="282" y="0" type="line"/>
      <point x="474" y="0" type="line"/>
      <point x="474" y="384" type="line"/>
      <point x="474" y="416"/>
      <point x="474" y="439"/>
      <point x="495" y="451" type="curve"/>
      <point x="342" y="451" type="line"/>
      <point x="293" y="427"/>
      <point x="282" y="366"/>
      <point x="282" y="336" type="curve"/>
    </contour>
    <contour>
      <point x="35" y="451" type="line"/>
      <point x="555" y="451" type="line"/>
      <point x="575" y="609" type="line"/>
      <point x="35" y="609" type="line"/>
    </contour>
  </outline>
</glyph>
<glyph name="widehe-hb" format="2">
  <advance width="689"/>
  <unicode hex="FB23"/>
  <note>
hewide
</note>
  <outline>
    <contour>
      <point x="437" y="0" type="line"/>
      <point x="629" y="0" type="line"/>
      <point x="629" y="382" type="line" smooth="yes"/>
      <point x="629" y="533"/>
      <point x="544" y="609"/>
      <point x="377" y="609" type="curve" smooth="yes"/>
      <point x="70" y="609" type="line"/>
      <point x="50" y="451" type="line"/>
      <point x="368" y="451" type="line" smooth="yes"/>
      <point x="411" y="451"/>
      <point x="437" y="427"/>
      <point x="437" y="379" type="curve" smooth="yes"/>
    </contour>
    <contour>
      <point x="60" y="0" type="line"/>
      <point x="252" y="0" type="line"/>
      <point x="252" y="326" type="line"/>
      <point x="60" y="316" type="line"/>
    </contour>
  </outline>
</glyph>
<glyph name="widekaf-hb" format="2">
  <advance width="567"/>
  <unicode hex="FB24"/>
  <note>
kafwide
</note>
  <outline>
    <contour>
      <point x="45" y="0" type="line"/>
      <point x="233" y="0" type="line" smooth="yes"/>
      <point x="427" y="0"/>
      <point x="532" y="110"/>
      <point x="532" y="297" type="curve" smooth="yes"/>
      <point x="532" y="493"/>
      <point x="427" y="609"/>
      <point x="233" y="609" type="curve" smooth="yes"/>
      <point x="65" y="609" type="line"/>
      <point x="45" y="451" type="line"/>
      <point x="233" y="451" type="line" smooth="yes"/>
      <point x="305" y="451"/>
      <point x="337" y="394"/>
      <point x="337" y="297" type="curve" smooth="yes"/>
      <point x="337" y="210"/>
      <point x="305" y="158"/>
      <point x="233" y="158" type="curve" smooth="yes"/>
      <point x="45" y="158" type="line"/>
    </contour>
  </outline>
</glyph>
<glyph name="widelamed-hb" format="2">
  <advance width="562"/>
  <unicode hex="FB25"/>
  <note>
lamedwide
</note>
  <outline>
    <contour>
      <point x="212" y="609" type="line"/>
      <point x="212" y="760" type="line"/>
      <point x="20" y="740" type="line"/>
      <point x="20" y="451" type="line"/>
      <point x="330" y="451" type="line"/>
      <point x="162" y="0" type="line"/>
      <point x="363" y="0" type="line"/>
      <point x="542" y="499" type="line"/>
      <point x="532" y="609" type="line"/>
    </contour>
  </outline>
</glyph>
<glyph name="finalwidemem-hb" format="2">
  <advance width="704"/>
  <unicode hex="FB26"/>
  <note>
finalmemwide
</note>
  <outline>
    <contour>
      <point x="397" y="609" type="curve" smooth="yes"/>
      <point x="45" y="609" type="line"/>
      <point x="25" y="451" type="line"/>
      <point x="135" y="451" type="line"/>
      <point x="86" y="427"/>
      <point x="75" y="366"/>
      <point x="75" y="336" type="curve" smooth="yes"/>
      <point x="75" y="0" type="line"/>
      <point x="649" y="0" type="line"/>
      <point x="649" y="382" type="line" smooth="yes"/>
      <point x="649" y="533"/>
      <point x="564" y="609"/>
    </contour>
    <contour>
      <point x="457" y="158" type="line"/>
      <point x="267" y="158" type="line"/>
      <point x="267" y="384" type="line" smooth="yes"/>
      <point x="267" y="406"/>
      <point x="267" y="429"/>
      <point x="277" y="451" type="curve"/>
      <point x="388" y="451" type="line" smooth="yes"/>
      <point x="431" y="451"/>
      <point x="457" y="427"/>
      <point x="457" y="379" type="curve" smooth="yes"/>
    </contour>
  </outline>
</glyph>
<glyph name="wideresh-hb" format="2">
  <advance width="547"/>
  <unicode hex="FB27"/>
  <note>
reshwide
</note>
  <outline>
    <contour>
      <point x="297" y="0" type="line"/>
      <point x="489" y="0" type="line"/>
      <point x="489" y="382" type="line" smooth="yes"/>
      <point x="489" y="533"/>
      <point x="404" y="609"/>
      <point x="237" y="609" type="curve" smooth="yes"/>
      <point x="45" y="609" type="line"/>
      <point x="25" y="451" type="line"/>
      <point x="228" y="451" type="line" smooth="yes"/>
      <point x="271" y="451"/>
      <point x="297" y="427"/>
      <point x="297" y="379" type="curve" smooth="yes"/>
    </contour>
  </outline>
</glyph>
<glyph name="widetav-hb" format="2">
  <advance width="731"/>
  <unicode hex="FB28"/>
  <note>
tavwide
</note>
  <outline>
    <contour>
      <point x="489" y="0" type="line"/>
      <point x="681" y="0" type="line"/>
      <point x="681" y="382" type="line" smooth="yes"/>
      <point x="681" y="533"/>
      <point x="596" y="609"/>
      <point x="429" y="609" type="curve" smooth="yes"/>
      <point x="128" y="609" type="line"/>
      <point x="128" y="451" type="line"/>
      <point x="420" y="451" type="line" smooth="yes"/>
      <point x="463" y="451"/>
      <point x="489" y="427"/>
      <point x="489" y="379" type="curve" smooth="yes"/>
    </contour>
    <contour>
      <point x="25" y="0" type="line"/>
      <point x="122" y="0" type="line" smooth="yes"/>
      <point x="252" y="0"/>
      <point x="320" y="76"/>
      <point x="320" y="221" type="curve" smooth="yes"/>
      <point x="320" y="574" type="line"/>
      <point x="128" y="574" type="line"/>
      <point x="128" y="211" type="line" smooth="yes"/>
      <point x="128" y="176"/>
      <point x="112" y="158"/>
      <point x="81" y="158" type="curve" smooth="yes"/>
      <point x="45" y="158" type="line"/>
    </contour>
    <contour>
      <point x="45" y="451" type="line"/>
      <point x="237" y="451" type="line"/>
      <point x="237" y="609" type="line"/>
      <point x="65" y="609" type="line"/>
    </contour>
  </outline>
</glyph>
<glyph name="alternativeplus-hb" format="2">
  <advance width="487"/>
  <unicode hex="FB29"/>
  <note>
alt_plussign
</note>
  <outline>
    <contour>
      <point x="309" y="461" type="line"/>
      <point x="309" y="640" type="line"/>
      <point x="178" y="640" type="line"/>
      <point x="178" y="461" type="line"/>
      <point x="36" y="461" type="line"/>
      <point x="36" y="330" type="line"/>
      <point x="451" y="330" type="line"/>
      <point x="451" y="461" type="line"/>
    </contour>
  </outline>
</glyph>
<glyph name="aleflamed-hb" format="2">
  <advance width="563"/>
  <unicode hex="FB4F"/>
  <note>
aleflamed
</note>
  <anchor x="281.5" y="0" name="caret_1"/>
  <outline>
    <contour>
      <point x="334" y="0" type="curve"/>
      <point x="537" y="0" type="line"/>
      <point x="497" y="95"/>
      <point x="454" y="182"/>
      <point x="411" y="270" type="curve"/>
      <point x="502" y="318"/>
      <point x="532" y="404"/>
      <point x="534" y="487" type="curve" smooth="yes"/>
      <point x="538" y="609" type="line"/>
      <point x="367" y="609" type="line"/>
      <point x="360" y="500" type="line" smooth="yes"/>
      <point x="358" y="469"/>
      <point x="357" y="436"/>
      <point x="347" y="409" type="curve"/>
      <point x="343" y="418"/>
      <point x="340" y="426"/>
      <point x="336" y="434" type="curve" smooth="yes"/>
      <point x="321" y="469"/>
      <point x="277" y="561"/>
      <point x="248" y="609" type="curve"/>
      <point x="207" y="609" type="line"/>
      <point x="207" y="760" type="line"/>
      <point x="15" y="740" type="line"/>
      <point x="15" y="451" type="line"/>
      <point x="134" y="451" type="line"/>
      <point x="149" y="424"/>
      <point x="162" y="399"/>
      <point x="172" y="381" type="curve" smooth="yes"/>
      <point x="237" y="256"/>
      <point x="278" y="152"/>
    </contour>
  </outline>
</glyph>
<glyph name="hatafpatah_zerowidthjoiner_siluqleft-hb" format="2">
  <anchor x="283" y="0" name="_bottom"/>
  <outline>
    <contour>
      <point x="65" y="-136" type="line"/>
      <point x="267" y="-136" type="line"/>
      <point x="267" y="-74" type="line"/>
      <point x="65" y="-74" type="line"/>
    </contour>
    <contour>
      <point x="307" y="-247" type="line"/>
      <point x="368" y="-247" type="line"/>
      <point x="368" y="-74" type="line"/>
      <point x="307" y="-74" type="line"/>
    </contour>
    <contour>
      <point x="454" y="-142" type="curve" smooth="yes"/>
      <point x="474" y="-142"/>
      <point x="491" y="-125"/>
      <point x="491" y="-105" type="curve" smooth="yes"/>
      <point x="491" y="-85"/>
      <point x="474" y="-68"/>
      <point x="454" y="-68" type="curve" smooth="yes"/>
      <point x="434" y="-68"/>
      <point x="417" y="-85"/>
      <point x="417" y="-105" type="curve" smooth="yes"/>
      <point x="417" y="-125"/>
      <point x="434" y="-142"/>
    </contour>
    <contour>
      <point x="454" y="-247" type="curve" smooth="yes"/>
      <point x="474" y="-247"/>
      <point x="491" y="-230"/>
      <point x="491" y="-210" type="curve" smooth="yes"/>
      <point x="491" y="-190"/>
      <point x="474" y="-173"/>
      <point x="454" y="-173" type="curve" smooth="yes"/>
      <point x="434" y="-173"/>
      <point x="417" y="-190"/>
      <point x="417" y="-210" type="curve" smooth="yes"/>
      <point x="417" y="-230"/>
      <point x="434" y="-247"/>
    </contour>
  </outline>
</glyph>
